<?xml version="1.0" encoding="utf-8"?>
<!-- Generator: Adobe Illustrator 27.9.0, SVG Export Plug-In . SVG Version: 6.00 Build 0)  -->
<svg version="1.1" id="Camada_1" xmlns="http://www.w3.org/2000/svg" xmlns:xlink="http://www.w3.org/1999/xlink" x="0px" y="0px"
	 viewBox="0 0 600 600" enable-background="new 0 0 600 600" xml:space="preserve">
<path fill="none" stroke="#f9f9f9" stroke-width="6" stroke-linecap="round" stroke-linejoin="round" stroke-miterlimit="10" d="
	M448.8,372.9l25.2,34c4.2,15.2-25.6,13.4-25.2,13.4l-282.3,1.9"/>
<path fill="none" stroke="#f9f9f9" stroke-width="6" stroke-miterlimit="10" d="M144.3,407.6c0,0-9.6,16.9,22.2,14.6"/>
<polyline fill="none" stroke="#f9f9f9" stroke-width="6" stroke-miterlimit="10" points="168.2,203.1 168.2,373.6 143.9,408.2 "/>
<path fill="none" stroke="#f9f9f9" stroke-width="6" stroke-miterlimit="10" d="M99.2,348.5"/>
<path fill="none" stroke="#f9f9f9" stroke-width="6" stroke-miterlimit="10" d="M166.4,372.9"/>
<polyline fill="none" stroke="#f9f9f9" stroke-width="6" stroke-miterlimit="10" points="376,373.6 448.8,372.9 448.8,200.7 "/>
<line fill="none" stroke="#f9f9f9" stroke-width="6" stroke-miterlimit="10" x1="168.2" y1="373.6" x2="241.5" y2="372.9"/>
<line fill="none" x1="258.5" y1="427" x2="258.5" y2="427"/>
<line fill="none" x1="247.6" y1="433.1" x2="246.7" y2="432.4"/>
<line stroke="#f9f9f9" stroke-width="6" stroke-miterlimit="10" x1="236.4" y1="421.1" x2="248.2" y2="433.9"/>
<line stroke="#f9f9f9" stroke-width="6" stroke-miterlimit="10" x1="247.4" y1="431.8" x2="247.9" y2="551.7"/>
<ellipse stroke="#f9f9f9" stroke-width="3" stroke-miterlimit="10" cx="248.2" cy="564.8" rx="14.6" ry="15.4"/>
<ellipse stroke="#f9f9f9" stroke-width="3" stroke-miterlimit="10" cx="350.5" cy="516.1" rx="14.6" ry="15.4"/>
<ellipse stroke="#f9f9f9" stroke-width="3" stroke-miterlimit="10" cx="312.9" cy="456.7" rx="14.6" ry="15.4"/>
<ellipse stroke="#f9f9f9" stroke-width="3" stroke-miterlimit="10" cx="260.4" cy="44.7" rx="14.4" ry="15.9"/>
<ellipse stroke="#f9f9f9" stroke-width="3" stroke-miterlimit="10" cx="233.5" cy="89.8" rx="14.4" ry="15.9"/>
<line stroke="#f9f9f9" stroke-width="6" stroke-miterlimit="10" x1="312.9" y1="440.6" x2="312.9" y2="420"/>
<path fill="none" stroke="#f9f9f9" stroke-width="6" stroke-miterlimit="10" d="M177.5,192.4"/>
<path fill="none" stroke="#f9f9f9" stroke-width="6" stroke-miterlimit="10" d="M173.2,192.4"/>
<path fill="none" stroke="#f9f9f9" stroke-width="6" stroke-miterlimit="10" d="M169.2,193.6"/>
<path fill="none" stroke="#f9f9f9" stroke-width="6" stroke-miterlimit="10" d="M168.2,196.7"/>
<path fill="none" stroke="#f9f9f9" stroke-width="6" stroke-miterlimit="10" d="M168.4,198.3"/>
<path fill="none" stroke="#f9f9f9" stroke-width="6" stroke-linejoin="round" stroke-miterlimit="10" d="M444.2,192.5
	c2.7,0.2,3.6,1.5,3.9,1.9c0.7,1,0.7,2.8,0.7,6.3c0,0.6,0,1.1,0,1.4"/>
<ellipse stroke="#f9f9f9" stroke-width="3" stroke-miterlimit="10" cx="355.3" cy="98.3" rx="14.6" ry="15.4"/>
<path stroke="#f9f9f9" stroke-width="3" stroke-miterlimit="10" d="M355.3,109.5"/>
<polyline fill="none" stroke="#f9f9f9" stroke-width="6" stroke-miterlimit="10" points="355.3,109.5 355.3,163.5 327.9,193.2 "/>
<line stroke="#f9f9f9" stroke-width="6" stroke-miterlimit="10" x1="280.8" y1="422.2" x2="281.4" y2="525.9"/>
<line stroke="#f9f9f9" stroke-width="3" stroke-miterlimit="10" x1="350.5" y1="498.7" x2="350.5" y2="498.9"/>
<line stroke="#f9f9f9" stroke-width="6" stroke-miterlimit="10" x1="350.5" y1="437.6" x2="350.5" y2="500.7"/>
<path fill="none" stroke="#f9f9f9" stroke-width="4" stroke-miterlimit="10" d="M141.1,406.2"/>
<line fill="none" stroke="#f9f9f9" stroke-width="6" stroke-miterlimit="10" x1="179.1" y1="192.3" x2="444.7" y2="192.5"/>
<path fill="none" stroke="#f9f9f9" stroke-width="4" stroke-miterlimit="10" d="M444.4,192.5"/>
<path fill="none" stroke="#f9f9f9" stroke-width="13" stroke-miterlimit="10" d="M402.3,306.2c0,40.2-25.6,67.9-28.6,70.8
	c-4.4,4.4-30.1,29.2-66.6,28.3c-46.5-1.1-95.2-43.5-95.2-99.2c0-54.8,42.6-99.2,95.2-99.2c32.7,0,56.5,19,63,24.8
	C401.3,259.9,402.3,298,402.3,306.2z"/>
<polyline fill="none" stroke="#f9f9f9" stroke-width="6" stroke-miterlimit="10" points="233.5,102.1 233.5,149.2 272.2,192.7 "/>
<polyline fill="none" stroke="#f9f9f9" stroke-width="6" stroke-miterlimit="10" points="260.4,56.9 261.4,146.3 301.7,192.4 "/>
<line fill="none" stroke="#f9f9f9" stroke-width="8" stroke-miterlimit="10" x1="307.2" y1="212.8" x2="307.2" y2="411.1"/>
<path fill="none" stroke="#f9f9f9" stroke-width="8" stroke-miterlimit="10" d="M397.7,303.3"/>
<path fill="none" stroke="#f9f9f9" stroke-width="6" stroke-miterlimit="10" d="M474.6,414.5"/>
<line stroke="#f9f9f9" stroke-width="6" stroke-miterlimit="10" x1="349.6" y1="439.8" x2="370.4" y2="420.8"/>
<path fill="none" stroke="#f9f9f9" stroke-width="8" stroke-miterlimit="10" d="M406.2,311.2"/>
<path fill="none" stroke="#f9f9f9" stroke-width="8" stroke-miterlimit="10" d="M207.9,311.2"/>
<path fill="none" stroke="#f9f9f9" stroke-width="13" stroke-miterlimit="10" d="M354.3,307.6"/>
<path fill="none" stroke="#f9f9f9" stroke-width="13" stroke-miterlimit="10" d="M427.6,287.6"/>
<path fill="none" stroke="#f9f9f9" stroke-width="8" stroke-miterlimit="10" d="M287.7,209.9c-3.8,3.4-32.1,30.4-34.8,93.4
	c-2.6,59.6,33.4,95.1,37.1,99.9"/>
<path fill="none" stroke="#f9f9f9" stroke-width="8" stroke-miterlimit="10" d="M326.8,210.4c3.8,3.4,32.1,30.4,34.8,93.4
	c2.6,59.6-33.4,95.1-37.1,99.9"/>
<path fill="none" stroke="#f9f9f9" stroke-width="8" stroke-miterlimit="10" d="M211.9,306.5c3.4,0.6,30.4,5,93.4,5.4
	c59.6,0.4,95.1-5.2,99.9-5.8"/>
<path fill="none" stroke="#f9f9f9" stroke-width="8" stroke-miterlimit="10" d="M222.2,345.3c3,3.1,27.2,26,83.4,28.2
	c53.3,2.1,84.9-27,89.2-30.1"/>
<path fill="none" stroke="#f9f9f9" stroke-width="8" stroke-miterlimit="10" d="M392.7,261.2c-3-1.9-27-16.6-82.8-18
	c-52.8-1.3-84.2,17.2-88.5,19.2"/>
<path fill="none" stroke="#f9f9f9" stroke-width="6" stroke-miterlimit="10" d="M167.8,203.1"/>
<path fill="none" stroke="#f9f9f9" stroke-width="6" stroke-miterlimit="10" d="M168.2,203.8c-0.5-4.4,1.4-8.6,4.7-10.5
	c2.9-1.7,5.9-1.1,6.8-0.9"/>
</svg>
